HIERARCHY
ROOT root
{
	OFFSET	0	13.1	24.9
	CHANNELS 6  Xposition Yposition Zposition Xrotation Yrotation Zrotation
	JOINT spine_1
	{
		OFFSET	0	9.99999	0
		CHANNELS 3  Xrotation Yrotation Zrotation
		JOINT spine_2
		{
			OFFSET	0	112	-10
			CHANNELS 3  Xrotation Yrotation Zrotation
			JOINT spine_3
			{
				OFFSET	0	206.5	19.3
				CHANNELS 3  Xrotation Yrotation Zrotation
				JOINT spine_4
				{
					OFFSET	0	110.4	14.6
					CHANNELS 3  Xrotation Yrotation Zrotation
					JOINT neck_1
					{
						OFFSET	0	71.8	-50.3
						CHANNELS 3  Xrotation Yrotation Zrotation
						JOINT neck_2
						{
							OFFSET	0	86.2	-25.8
							CHANNELS 3  Xrotation Yrotation Zrotation
							JOINT head_ee
							{
								OFFSET	0	179.8	-8.7
								CHANNELS 3  Xrotation Yrotation Zrotation
								End Site
								{
									OFFSET	1	0	0
								}
							}
						}
					}
					JOINT left_clavicle
					{
						OFFSET	-43.2	22.4	-70.8
						CHANNELS 3  Xrotation Yrotation Zrotation
						JOINT left_shoulder
						{
							OFFSET	-93.9	-5.79999	48.7
							CHANNELS 3  Xrotation Yrotation Zrotation
							JOINT left_elbow
							{
								OFFSET	-291.4	-30.8	15.2
								CHANNELS 3  Xrotation Yrotation Zrotation
								JOINT left_lowarm_twist
								{
									OFFSET	-110.7	-3.89999	13.6
									CHANNELS 3  Xrotation Yrotation Zrotation
									JOINT left_hand
									{
										OFFSET	-110.7	-3.89999	13.6
										CHANNELS 3  Xrotation Yrotation Zrotation
										JOINT left_ee
										{
											OFFSET	-80.8	-5.10001	12.1
											CHANNELS 3  Xrotation Yrotation Zrotation
											End Site
											{
												OFFSET	1	0	0
											}
										}
									}
								}
							}
						}
					}
					JOINT right_clavicle
					{
						OFFSET	43.2	22.4	-70.8
						CHANNELS 3  Xrotation Yrotation Zrotation
						JOINT right_shoulder
						{
							OFFSET	93.9	-5.79999	48.7
							CHANNELS 3  Xrotation Yrotation Zrotation
							JOINT right_elbow
							{
								OFFSET	291.4	-30.8	15.2
								CHANNELS 3  Xrotation Yrotation Zrotation
								JOINT right_lowarm_twist
								{
									OFFSET	110.7	-3.89999	13.6
									CHANNELS 3  Xrotation Yrotation Zrotation
									JOINT right_hand
									{
										OFFSET	110.7	-3.89999	13.6
										CHANNELS 3  Xrotation Yrotation Zrotation
										JOINT right_ee
										{
											OFFSET	80.8	-5.10001	12.1
											CHANNELS 3  Xrotation Yrotation Zrotation
											End Site
											{
												OFFSET	1	0	0
											}
										}
									}
								}
							}
						}
					}
				}
			}
		}
	}
	JOINT left_hip
	{
		OFFSET	-82.8	-127.5	0.300001
		CHANNELS 3  Xrotation Yrotation Zrotation
		JOINT left_knee
		{
			OFFSET	-28.2	-396.7	2.2
			CHANNELS 3  Xrotation Yrotation Zrotation
			JOINT left_ankle
			{
				OFFSET	-11.7	-411.3	35.4
				CHANNELS 3  Xrotation Yrotation Zrotation
				JOINT left_toes
				{
					OFFSET	0	-60	-88.6
					CHANNELS 3  Xrotation Yrotation Zrotation
					JOINT left_foot_ee
					{
						OFFSET	-22.5	-16.5	-42.2
						CHANNELS 3  Xrotation Yrotation Zrotation
						End Site
						{
							OFFSET	1	0	0
						}
					}
				}
			}
		}
	}
	JOINT right_hip
	{
		OFFSET	82.8	-127.5	0.300001
		CHANNELS 3  Xrotation Yrotation Zrotation
		JOINT right_knee
		{
			OFFSET	28.2	-396.7	2.2
			CHANNELS 3  Xrotation Yrotation Zrotation
			JOINT right_ankle
			{
				OFFSET	11.7	-411.3	35.4
				CHANNELS 3  Xrotation Yrotation Zrotation
				JOINT right_toes
				{
					OFFSET	0	-60	-88.6
					CHANNELS 3  Xrotation Yrotation Zrotation
					JOINT right_foot_ee
					{
						OFFSET	22.5	-16.5	-42.2
						CHANNELS 3  Xrotation Yrotation Zrotation
						End Site
						{
							OFFSET	1	0	0
						}
					}
				}
			}
		}
	}
}
MOTION
Frames: 16
Frame Time: 0.02
494.055 695.161 -1666.55 -166.559 -68.9247 -170.301 -1.24082 -0.404294 -0.500959 -1.24076 -0.371597 -0.525669 -1.23716 -0.239988 -0.597341 -1.23751 -0.331314 -0.551945 9.78381 -4.30969 4.97103 10.1615 -11.6184 6.04964 -0.0 0.0 -0.0 7.04609 -9.95879 13.4867 12.9461 -32.1207 60.4403 0.843256 -22.6713 0.169048 54.0395 -1.27293 -6.53174 3.41487 -21.826 13.2906 -0.0 0.0 -0.0 -3.58345 -11.2748 4.76767 -68.3348 85.9486 -21.6245 0.633566 17.4246 -0.0970893 -86.8283 8.67964 -5.13598 -8.38966 -6.92267 66.6605 0.0 0.0 0.0 1.7642 -19.2956 13.5535 -27.3345 0.136895 4.15294 25.4439 8.32732 -3.3835 36.6464 -0.0 -0.0 -0.0 0.0 -0.0 16.017 68.129 5.54266 -2.29295 -0.0875955 -0.340966 42.0703 -27.7665 5.46518 29.3878 -0.0 -0.0 0.0 0.0 0.0 
515.586 698.135 -1657.94 -168.83 -68.4527 -173.072 -1.32986 -0.312373 -0.221542 -1.32989 -0.297643 -0.24097 -1.3286 -0.233374 -0.303635 -1.32862 -0.278399 -0.262967 10.2465 -5.12031 3.29627 10.5525 -11.3952 4.03795 -0.0 0.0 -0.0 7.17503 -8.79085 13.8025 12.7184 -31.7702 60.4452 0.805421 -21.751 0.154745 53.8463 -1.25772 -6.51223 3.20646 -21.447 12.0881 -0.0 0.0 -0.0 -3.72198 -11.8585 4.88464 -51.5515 86.3936 -37.7118 0.613708 16.9101 -0.0912278 -86.1297 8.59284 -5.15542 -8.44498 -6.7215 67.9929 0.0 0.0 0.0 1.23267 -19.7875 12.2571 -29.8103 0.051287 4.52322 26.4364 6.71817 -3.49542 37.483 -0.0 -0.0 -0.0 0.0 -0.0 15.6502 68.4391 5.69828 -2.43774 -0.0926675 -0.362608 42.0238 -26.0104 5.39366 29.4231 -0.0 -0.0 0.0 0.0 0.0 
532.395 690.993 -1648.69 -168.002 -68.7832 -172.402 -1.22837 -0.191697 0.102092 -1.22838 -0.197805 0.0896864 -1.22872 -0.213177 0.041547 -1.22866 -0.20394 0.074693 10.8804 -6.30114 0.925606 11.1079 -11.0954 1.1618 -0.0 0.0 -0.0 7.37655 -7.3723 14.2685 12.5926 -31.2986 60.5804 0.786635 -21.2896 0.147854 53.5141 -1.23171 -6.47854 2.92534 -20.9705 10.4474 -0.0 0.0 -0.0 -3.97778 -12.5999 5.16183 -34.6899 85.992 -53.3015 0.560715 15.5234 -0.0764272 -84.7851 8.42505 -5.18981 -8.51734 -6.43689 69.9027 0.0 0.0 0.0 1.90322 -19.6907 12.4393 -32.0308 -0.0390605 4.85198 27.8831 4.30376 -3.65994 38.6855 -0.0 -0.0 -0.0 0.0 -0.0 15.33 68.8246 5.45358 -2.63549 -0.099506 -0.392186 41.9466 -23.329 5.29663 29.4719 -0.0 -0.0 0.0 0.0 0.0 
540.887 694.135 -1635.24 -164.541 -70.508 -169.135 -1.12971 -0.111513 0.278699 -1.12968 -0.129022 0.271039 -1.13029 -0.187764 0.234208 -1.13033 -0.148419 0.260923 11.6903 -8.09862 -2.56639 11.8492 -10.6758 -3.13983 -0.0 0.0 -0.0 7.64199 -5.40491 14.8615 12.2629 -30.6393 60.8315 0.759042 -20.6066 0.137988 52.9669 -1.1893 -6.42272 2.54226 -20.2733 8.23329 -0.0 0.0 -0.0 -4.22044 -13.5254 5.3662 -16.2835 85.0268 -69.8135 0.496655 13.8221 -0.0601992 -82.6266 8.15401 -5.23668 -8.59942 -5.99537 72.5525 0.0 0.0 0.0 3.41137 -19.3941 13.4362 -35.011 -0.180248 5.28738 29.9936 0.833611 -3.90399 40.4029 -0.0 -0.0 -0.0 0.0 -0.0 15.2296 69.3607 4.63928 -2.19656 -0.0841891 -0.326564 41.8481 -19.5092 5.18398 29.5367 -0.0 -0.0 0.0 0.0 0.0 
554.732 700.905 -1616.48 -168.585 -71.2547 -173.011 -1.84551 -0.0278482 0.33133 -1.84545 -0.048875 0.328887 -1.84569 -0.126874 0.307341 -1.84581 -0.0767428 0.323521 8.74676 -7.97539 -3.716 8.8699 -9.85853 -4.57251 -0.0 0.0 -0.0 7.62353 -2.43264 14.8452 11.3915 -29.6136 61.1032 0.723959 -19.7293 0.125892 52.7296 -1.17108 -6.3984 2.2009 -19.6854 6.2406 -0.0 0.0 -0.0 -4.39397 -15.3752 5.23139 -3.30604 85.1369 -83.4969 0.486986 13.563 -0.0579106 -82.3497 8.11909 -5.24194 -8.64175 -6.54517 72.4232 0.0 0.0 0.0 6.84363 -19.1035 13.4353 -36.7652 -0.273901 5.5401 28.3631 0.868659 -3.72728 40.491 -0.0 -0.0 -0.0 0.0 -0.0 15.0102 70.0579 3.62244 -1.57042 -0.0614692 -0.233158 42.1113 -18.1219 5.1758 28.3576 -0.0 -0.0 0.0 0.0 0.0 
569.624 705.473 -1603.54 -164.964 -71.7371 -169.604 -1.87694 0.0604099 0.463851 -1.87682 0.0307718 0.466755 -1.87645 -0.0831355 0.460322 -1.87675 -0.00939371 0.467674 9.28581 -8.39989 -4.3286 9.41403 -9.91567 -5.31416 -0.0 0.0 -0.0 7.78525 0.0249507 15.1562 9.86702 -28.3937 61.1562 0.690103 -18.8734 0.114701 52.217 -1.13206 -6.3456 1.92038 -18.9384 4.72189 -0.0 0.0 -0.0 -4.62707 -17.665 5.0621 -2.48036 85.3122 -84.3234 0.457541 12.7707 -0.0512032 -81.9565 8.06948 -5.24912 -8.70168 -7.30505 72.2438 0.0 0.0 0.0 8.24146 -19.2419 13.3052 -38.999 -0.404316 5.85765 26.4423 0.86684 -3.513 40.1735 -0.0 -0.0 -0.0 0.0 -0.0 14.2313 69.8287 3.30118 -0.706691 -0.0284532 -0.104717 42.1548 -16.1837 5.14134 26.8889 -0.0 -0.0 0.0 0.0 0.0 
594.459 714.609 -1590.35 -165.055 -71.0732 -169.442 -1.645 0.197409 0.724814 -1.64472 0.150888 0.735905 -1.64246 -0.0286769 0.750667 -1.64324 0.0902334 0.745775 10.9363 -9.13591 -4.93715 11.0773 -10.2738 -6.07663 -0.0 0.0 -0.0 8.10515 2.2942 15.743 7.74154 -26.9579 61.3568 0.643742 -17.6871 0.100159 51.4763 -1.07652 -6.2687 1.55814 -18.0162 2.73012 -0.0 0.0 -0.0 -4.96017 -20.7027 4.81496 -2.53519 85.8511 -84.2212 0.400216 11.214 -0.039291 -81.5531 8.01853 -5.25613 -8.76609 -8.2134 71.8104 0.0 0.0 0.0 9.33557 -19.5466 12.8935 -42.3678 -0.624237 6.32653 23.7074 1.01537 -3.19559 39.2329 -0.0 -0.0 -0.0 0.0 -0.0 13.038 69.4262 2.94945 0.099503 0.00411011 0.0147164 42.0214 -13.6574 5.08965 24.7923 -0.0 -0.0 0.0 0.0 0.0 
619.813 704.373 -1582.02 -165.552 -70.2311 -170.293 -1.20366 0.302278 0.84925 -1.2033 0.247627 0.866762 -1.19912 0.0411013 0.9005 -1.20021 0.182797 0.882711 13.6065 -10.2414 -5.66424 13.7595 -10.852 -7.05672 -0.0 0.0 -0.0 7.91679 5.33423 15.2707 5.11776 -25.1183 60.5596 0.622101 -17.1279 0.0936843 50.4852 -1.00376 -6.1647 1.39131 -17.1487 2.00642 -0.0 0.0 -0.0 -5.08302 -21.1502 4.88057 -0.0666214 86.095 -86.6498 0.365078 10.2513 -0.0327472 -80.8371 7.92795 -5.26769 -8.88957 -9.51274 71.814 0.0 0.0 0.0 10.9375 -20.0448 12.3174 -45.8668 -0.881544 6.79923 19.8836 1.23743 -2.73064 37.576 -0.0 -0.0 -0.0 0.0 -0.0 10.7668 68.9035 3.21354 -0.501109 -0.0203092 -0.0742187 41.1632 -11.5535 4.99114 22.9187 -0.0 -0.0 0.0 0.0 0.0 
631.285 706.31 -1574.75 -163.46 -69.1735 -168.11 -0.771969 0.293144 0.70976 -0.771723 0.247387 0.726974 -0.768312 0.078845 0.763853 -0.769071 0.198489 0.741817 14.0102 -11.3195 -6.92612 14.1755 -11.2668 -8.67704 -0.0 0.0 -0.0 7.86525 7.15227 15.0925 2.67567 -22.9072 59.2386 0.62684 -17.2506 0.0950849 49.1843 -0.911033 -6.02632 1.39656 -16.4133 2.36928 -0.0 0.0 -0.0 -5.26777 -21.7912 4.98126 1.46408 86.4982 -88.205 0.315046 8.87049 -0.0244365 -81.6585 8.03185 -5.25434 -9.07243 -11.3607 71.7717 0.0 0.0 0.0 13.0796 -18.099 12.6842 -50.1538 -1.23559 7.356 15.7451 1.47749 -2.20196 36.5761 -0.0 -0.0 -0.0 0.0 -0.0 10.4421 68.1927 2.09578 -0.732908 -0.0294837 -0.108608 39.256 -10.7755 4.8166 22.7377 -0.0 -0.0 0.0 0.0 0.0 
652.077 712.222 -1565.9 -168.464 -69.1015 -172.45 -0.800411 0.327136 0.711996 -0.800173 0.281168 0.731369 -0.796297 0.110417 0.775732 -0.797063 0.23154 0.748561 14.6289 -11.8649 -7.57393 14.7942 -11.3587 -9.54657 -0.0 0.0 -0.0 7.80652 9.71969 14.8467 -0.0230697 -21.8541 59.7652 0.634411 -17.4464 0.0973424 47.2515 -0.779146 -5.81698 1.55849 -15.6883 3.77753 -0.0 0.0 -0.0 -5.59034 -22.3274 5.30077 -9.35546 87.0302 -76.8237 0.337015 9.47818 -0.0279393 -82.8455 8.18158 -5.2324 -9.28523 -13.3466 71.8075 0.0 0.0 0.0 16.4278 -15.2718 13.1868 -51.3331 -1.34024 7.50446 9.50285 1.77346 -1.36086 33.6788 -0.0 -0.0 -0.0 0.0 -0.0 9.83742 67.205 0.756309 -1.03913 -0.0413901 -0.154095 35.5031 -11.0298 4.46756 22.7759 -0.0 -0.0 0.0 0.0 0.0 
671.316 706.817 -1557.45 -169.211 -70.1136 -173.438 -1.10413 0.282263 1.05905 -1.10353 0.214304 1.07486 -1.09892 -0.0373988 1.09538 -1.10057 0.136055 1.08754 13.6487 -11.3727 -6.94742 13.8207 -11.4131 -8.6809 -0.0 0.0 -0.0 7.75397 12.5768 14.5677 -2.12162 -21.1448 60.053 0.666093 -18.261 0.107056 44.4873 -0.603003 -5.51022 1.79703 -14.6714 5.83728 -0.0 0.0 -0.0 -6.05079 -22.9404 5.78437 -36.3126 87.3666 -48.9554 0.367177 10.309 -0.0331217 -83.9115 8.31559 -5.21002 -9.59865 -16.0575 71.8562 0.0 0.0 0.0 16.1707 -14.4723 12.0357 -52.5173 -1.4484 7.65137 6.23167 1.75211 -0.902243 31.1872 -0.0 -0.0 -0.0 0.0 -0.0 6.94018 65.7943 1.54493 -0.162337 -0.00665047 -0.0240245 31.0302 -11.8158 4.01758 23.0954 -0.0 -0.0 0.0 0.0 0.0 
693.108 713.658 -1548.73 -172.696 -71.5304 -176.996 -1.71746 0.104263 0.961866 -1.71695 0.0428486 0.96655 -1.71575 -0.18976 0.948709 -1.717 -0.037555 0.96677 11.5548 -10.3572 -6.4228 11.7168 -10.7447 -7.93085 -0.0 0.0 -0.0 7.54607 16.5667 13.9077 -4.33629 -20.3567 60.0083 0.711513 -19.4157 0.121723 40.6547 -0.383754 -5.07176 2.17987 -13.1993 9.09318 -0.0 0.0 -0.0 -5.30502 -23.8245 4.48958 -71.8273 86.9519 -12.4821 0.383496 10.7567 -0.0361049 -85.5586 8.52168 -5.17051 -9.94139 -19.2375 70.4664 0.0 0.0 0.0 19.244 -12.394 11.1829 -53.3932 -1.53036 7.75859 1.1419 1.6932 -0.16778 27.3729 -0.0 -0.0 -0.0 0.0 -0.0 2.56803 63.6926 2.13856 1.09087 0.0464552 0.160949 26.5424 -12.5547 3.52698 23.9685 -0.0 -0.0 0.0 0.0 0.0 
707.376 718.451 -1545.1 -169.365 -73.9383 -173.838 -1.3796 -0.145262 0.834859 -1.37924 -0.19809 0.823925 -1.38192 -0.385179 0.754808 -1.38262 -0.261141 0.806163 11.2716 -9.86715 -5.7064 11.427 -10.6807 -7.03305 -0.0 0.0 -0.0 7.22199 20.8692 13.0175 -7.54603 -19.0199 59.7215 0.745675 -20.2735 0.13332 34.8773 -0.109964 -4.38595 2.2742 -10.6937 10.8609 -0.0 0.0 -0.0 -4.07096 -22.809 3.02323 -99.4913 86.6132 18.4973 0.405011 11.3449 -0.0402289 -85.5118 8.51584 -5.17172 -9.63147 -18.8889 65.3757 0.0 0.0 0.0 13.847 -14.0806 10.5957 -45.9934 -0.891395 6.81604 -2.96784 2.49393 0.439625 24.8245 -0.0 -0.0 -0.0 0.0 -0.0 2.74791 60.8644 2.67941 2.89683 0.130085 0.425413 22.5558 -16.1671 3.08262 24.3959 -0.0 -0.0 0.0 0.0 0.0 
722.77 708.558 -1540.08 -166.857 -75.134 -171.991 -0.900803 -0.0774145 0.875164 -0.900387 -0.132944 0.868465 -0.902199 -0.325423 0.816095 -0.903077 -0.192457 0.857244 11.8279 -9.68433 -4.57116 11.9983 -11.3409 -5.62892 -0.0 0.0 -0.0 6.65851 22.1789 12.0646 -9.96489 -17.034 59.2464 0.801558 -21.6564 0.153316 31.0436 0.032923 -3.91735 2.44178 -7.55563 13.3969 -0.0 0.0 -0.0 -2.20716 -15.6081 1.67102 -49.0573 85.8019 -28.1917 0.429035 11.9988 -0.0450892 -82.1103 8.0889 -5.24635 -8.79454 -15.9274 58.5442 0.0 0.0 0.0 16.0037 -15.44 11.8742 -48.0587 -1.05733 7.08716 -4.07623 4.79822 0.603106 23.4714 -0.0 -0.0 -0.0 0.0 -0.0 1.62923 57.2955 2.51405 5.23962 0.250949 0.764416 19.7549 -18.1046 2.75027 24.2172 -0.0 -0.0 0.0 0.0 0.0 
746.03 709.557 -1531.35 -166.974 -73.4329 -172.23 -0.0511369 0.0394938 0.959502 -0.0506249 -0.021639 0.96007 -0.0507637 -0.223788 0.933877 -0.0519733 -0.0734981 0.957498 11.6113 -9.40399 -4.95186 11.7597 -10.5711 -6.10576 -0.0 0.0 -0.0 6.4059 23.7292 11.5761 -12.5624 -14.5799 59.5692 0.894796 -23.9053 0.189426 28.2698 0.116581 -3.57296 2.33135 -2.96896 14.5732 -0.0 0.0 -0.0 -1.19065 -14.1705 0.26346 10.9221 86.7118 -86.7189 0.419506 11.7398 -0.0431292 -83.5169 8.26604 -5.2186 -7.85999 -13.83 50.5132 0.0 0.0 0.0 19.8558 -17.6561 12.9013 -50.4778 -1.26403 7.397 -4.77288 9.89005 0.705784 22.2606 -0.0 -0.0 -0.0 0.0 -0.0 -1.63342 55.723 3.54362 7.99526 0.410757 1.15657 19.1937 -19.1137 2.68804 24.1065 -0.0 -0.0 0.0 0.0 0.0 
766.297 705.856 -1517.0 -173.863 -71.071 -178.463 -0.0311275 0.230489 0.974907 -0.0306144 0.167989 0.987596 -0.0273981 -0.0438069 1.00082 -0.0287777 0.114796 0.995181 8.58858 -8.37938 -5.51562 8.70706 -8.91287 -6.73646 -0.0 0.0 -0.0 5.63299 24.7138 10.4303 -15.2352 -11.1066 58.9823 1.03303 -27.0997 0.248967 26.5664 0.159653 -3.35963 2.24472 1.95339 15.9459 -0.0 0.0 -0.0 -2.07171 -14.133 1.7038 21.2219 86.5392 -95.1166 0.38196 10.7146 -0.0358187 -84.2313 8.35571 -5.20282 -7.69775 -13.8168 48.8609 0.0 0.0 0.0 28.7667 -18.5435 13.9924 -47.3401 -0.998487 6.99351 -15.4151 14.552 2.32344 17.9079 -0.0 -0.0 -0.0 0.0 -0.0 -3.51693 57.0424 1.04325 6.72572 0.334782 0.976837 18.9643 -19.8839 2.66624 25.0247 -0.0 -0.0 0.0 0.0 0.0 
